<?xml version="1.0" standalone="no"?>
<!DOCTYPE svg PUBLIC "-//W3C//DTD SVG 20010904//EN"
 "http://www.w3.org/TR/2001/REC-SVG-20010904/DTD/svg10.dtd">
<svg version="1.0" xmlns="http://www.w3.org/2000/svg"
 width="1441.000000pt" height="1441.000000pt" viewBox="0 0 1441.000000 1441.000000"
 preserveAspectRatio="xMidYMid meet">

<g transform="translate(0.000000,1441.000000) scale(0.100000,-0.100000)"
fill="#000000" stroke="none">
<path d="M5497 12679 c-14 -8 -15 -14 -6 -30 15 -28 9 -30 -36 -14 -118 42
-272 -22 -329 -136 -58 -117 -17 -240 99 -302 57 -31 173 -30 231 0 63 34 100
69 125 120 l22 46 16 -39 c11 -28 21 -39 34 -36 9 2 17 5 17 7 0 5 -141 368
-148 381 -5 9 -12 10 -25 3z m-49 -84 c71 -30 122 -103 122 -175 0 -74 -65
-162 -142 -194 -123 -52 -272 26 -285 148 -18 152 161 281 305 221z"/>
<path d="M4632 12438 c-29 -29 -1 -71 40 -60 19 5 34 44 23 61 -8 15 -48 14
-63 -1z"/>
<path d="M4711 12311 c-11 -7 7 -46 84 -185 53 -97 100 -178 104 -180 4 -3 13
-1 20 4 10 6 -10 51 -85 189 -55 99 -101 181 -104 181 -3 0 -11 -4 -19 -9z"/>
<path d="M4397 12111 c-9 -16 -17 -37 -17 -48 0 -40 -16 -46 -37 -14 -16 27
-21 29 -36 19 -15 -12 -5 -31 96 -185 61 -95 114 -172 117 -172 3 -1 11 3 18
8 11 6 -3 35 -60 122 -65 101 -73 119 -72 160 0 26 10 63 22 86 11 23 18 44
15 47 -13 13 -29 5 -46 -23z"/>
<path d="M3879 11795 c-52 -17 -132 -82 -156 -129 -9 -17 -22 -53 -28 -79
l-11 -48 -103 122 c-92 108 -105 120 -118 106 -14 -13 8 -42 197 -264 117
-136 217 -252 221 -257 5 -5 15 -4 24 4 14 12 13 16 -10 40 -33 34 -32 40 9
33 101 -16 239 79 270 186 26 88 18 143 -29 211 -52 75 -166 107 -266 75z
m167 -45 c24 -12 54 -39 70 -62 24 -34 29 -51 29 -102 -1 -192 -238 -300 -360
-164 -62 68 -71 129 -31 214 52 112 187 164 292 114z"/>
<path d="M3253 11419 c-16 -6 -23 -17 -23 -33 0 -30 14 -40 46 -32 18 5 24 13
24 35 0 33 -15 42 -47 30z"/>
<path d="M3341 11306 c-13 -16 0 -32 135 -167 118 -118 153 -147 161 -137 9
10 -22 48 -136 167 -133 140 -148 152 -160 137z"/>
<path d="M2864 11196 c-6 -15 7 -28 295 -290 107 -97 199 -175 205 -173 5 2
11 8 13 14 4 11 -480 463 -497 463 -6 0 -13 -6 -16 -14z"/>
<path d="M6989 10890 c-684 -48 -1328 -304 -1884 -751 -210 -168 -546 -516
-550 -569 -1 -11 -33 -63 -71 -117 -225 -315 -424 -714 -533 -1068 -32 -105
-101 -383 -101 -407 0 -8 20 4 45 29 26 24 45 52 45 64 0 31 34 81 69 102 56
33 119 5 149 -65 10 -24 9 -29 -8 -38 -35 -19 -22 -32 28 -30 70 4 69 4 68
-47 -1 -42 2 -48 19 -48 12 0 25 11 33 28 13 26 11 32 -12 68 -15 21 -34 39
-44 39 -29 0 -34 12 -12 27 11 8 20 20 20 26 -1 21 -93 82 -124 82 -16 0 -31
6 -33 13 -3 8 7 12 33 12 36 0 37 0 19 20 -12 14 -31 20 -59 20 -48 0 -124 32
-132 55 -10 26 11 39 30 20 13 -13 26 -15 54 -10 20 4 40 9 44 11 3 2 -2 28
-13 56 -10 29 -19 65 -19 80 0 35 27 62 54 53 50 -16 61 -12 63 23 1 34 27 72
48 72 6 0 24 -13 40 -30 16 -16 32 -30 37 -30 9 0 -47 97 -72 125 -44 48 -29
125 25 125 15 0 25 6 25 14 0 8 8 24 19 37 l19 23 42 -29 c38 -27 44 -28 73
-16 78 32 117 18 152 -54 10 -22 22 -34 30 -32 19 8 35 -14 35 -49 0 -49 -38
-96 -95 -117 -60 -22 -64 -25 -45 -37 12 -7 9 -15 -18 -41 -28 -28 -42 -59
-26 -59 3 0 24 16 47 35 22 19 44 35 49 35 14 0 9 -15 -13 -33 -11 -10 -19
-21 -16 -24 11 -10 46 8 62 33 16 24 15 27 -1 45 -14 15 -14 19 -3 19 20 0 39
-20 39 -42 0 -11 7 -18 19 -18 33 0 44 -24 30 -64 -12 -33 -11 -36 19 -66 18
-17 32 -39 32 -49 0 -26 -36 -55 -57 -46 -16 6 -16 8 3 15 12 5 25 13 28 18 8
13 -41 72 -60 72 -16 0 -19 -16 -4 -25 22 -14 8 -23 -20 -12 -32 12 -51 4 -32
-15 7 -7 12 -19 12 -28 0 -20 -57 -75 -87 -85 -28 -8 -29 -16 -3 -33 11 -7 20
-19 20 -27 0 -18 -2 -18 -34 -4 -14 7 -32 9 -41 5 -15 -5 -14 -9 4 -32 12 -15
21 -35 21 -46 0 -15 5 -18 21 -13 51 17 81 -82 43 -141 -21 -31 -12 -41 21
-26 34 15 45 15 45 -1 0 -19 -37 -51 -87 -76 -29 -14 -43 -28 -43 -41 0 -23
25 -27 33 -6 7 17 102 50 117 41 17 -11 11 -38 -16 -66 l-25 -26 31 -62 c17
-33 38 -61 46 -61 22 0 17 37 -8 54 -15 11 -18 16 -7 16 23 0 59 -29 59 -49 0
-23 -42 -45 -68 -36 -23 7 -62 -9 -62 -26 0 -5 9 -19 19 -30 37 -40 31 -92
-14 -109 -28 -10 -31 -21 -14 -48 9 -15 8 -24 -6 -45 -21 -33 -28 -33 -67 -6
-34 24 -46 19 -31 -13 7 -15 7 -33 0 -51 -12 -35 -3 -45 25 -28 20 12 24 11
46 -14 14 -17 21 -34 17 -44 -4 -9 -15 -43 -25 -76 -30 -102 -47 -134 -85
-156 -40 -24 -44 -36 -14 -41 29 -4 48 -33 32 -49 -11 -11 -60 -1 -105 22 -10
5 -22 9 -28 9 -13 0 -13 -77 1 -85 16 -10 1 -64 -32 -114 -16 -25 -29 -50 -29
-57 0 -25 17 -23 29 3 l12 27 13 -25 c10 -20 10 -29 -1 -52 -14 -28 -9 -52 8
-41 5 3 21 28 34 55 14 27 30 49 35 49 13 0 13 -13 -1 -27 -6 -6 -9 -19 -6
-29 3 -15 7 -12 20 16 17 40 12 90 -10 90 -10 0 -12 6 -8 21 5 14 1 25 -12 35
-17 14 -17 15 5 9 12 -4 22 -2 22 4 0 21 -13 41 -26 41 -8 0 -14 4 -14 9 0 5
13 4 29 -2 24 -9 35 -7 66 12 l38 22 23 -22 c20 -19 24 -32 24 -83 -1 -84 -12
-126 -49 -181 -18 -26 -31 -48 -29 -49 41 -18 66 -39 84 -71 34 -61 20 -71
-42 -29 -28 19 -55 28 -96 31 -56 3 -58 3 -49 -19 4 -13 13 -59 20 -103 7 -44
16 -96 21 -115 5 -19 19 -96 31 -170 11 -74 30 -165 40 -201 10 -36 19 -76 19
-89 0 -19 24 -49 40 -50 3 0 5 19 6 43 1 41 17 109 54 232 35 115 58 178 166
435 24 58 44 111 44 118 0 7 -20 32 -45 55 -43 42 -45 46 -45 101 0 60 -9 86
-43 123 -11 13 -18 26 -14 29 10 10 76 -44 98 -80 l19 -31 0 64 c0 45 6 78 21
109 24 49 43 61 70 44 41 -26 52 -6 19 35 -11 14 -20 33 -20 42 0 12 6 9 20
-9 15 -19 20 -21 20 -8 0 9 -13 30 -30 46 -32 33 -38 52 -16 52 13 0 39 -27
79 -84 29 -42 37 -30 16 24 -10 28 -19 64 -19 81 0 39 27 97 52 110 16 9 17
12 4 30 -10 15 -12 29 -5 51 11 41 2 52 -27 34 -34 -23 -61 -20 -80 9 -16 24
-15 27 10 60 17 22 41 39 67 46 39 12 40 13 34 49 -5 27 -1 42 14 62 17 21 24
56 36 174 105 1009 474 1935 966 2423 183 182 354 262 557 262 128 0 227 -26
372 -97 63 -31 123 -58 134 -60 10 -2 58 -30 107 -64 53 -36 99 -60 115 -60
42 0 121 -48 138 -85 9 -18 16 -40 16 -48 0 -24 12 -27 81 -19 90 10 88 24
-13 112 -82 72 -118 93 -170 105 -28 5 -38 30 -16 37 16 6 -100 86 -145 100
-20 6 -54 26 -75 43 -86 74 -276 147 -434 166 -51 6 -94 12 -96 14 -2 1 46 23
106 49 130 55 271 90 427 107 63 7 115 17 115 21 0 4 8 8 19 8 10 0 26 11 35
25 20 31 56 33 128 5 29 -11 54 -20 56 -20 1 0 2 22 2 49 0 42 -3 50 -22 54
-46 11 -326 15 -449 7z m-2622 -4205 c-4 -8 -11 -15 -17 -15 -14 0 -13 27 3
33 16 6 21 1 14 -18z"/>
<path d="M7508 10866 c3 -6 8 -31 10 -56 1 -24 7 -49 14 -55 8 -7 9 2 4 34 -4
27 -2 48 5 57 18 22 29 7 29 -39 0 -49 7 -62 37 -71 20 -6 20 -4 13 26 -5 18
-12 43 -15 56 -5 13 -3 22 3 22 16 0 42 -41 42 -65 0 -21 29 -69 30 -49 0 5
-5 15 -11 21 -12 12 -4 33 12 33 6 0 16 -14 23 -31 11 -26 14 -28 20 -13 9 22
-51 113 -79 119 -58 14 -144 21 -137 11z"/>
<path d="M7762 10817 c3 -24 21 -27 26 -4 2 8 -4 17 -13 21 -13 4 -16 1 -13
-17z"/>
<path d="M7810 10800 c0 -11 4 -20 9 -20 11 0 22 26 14 34 -12 12 -23 5 -23
-14z"/>
<path d="M7863 10777 c-26 -39 -38 -81 -27 -99 6 -9 10 -6 14 12 3 14 13 25
22 25 8 0 23 6 32 14 23 20 32 6 19 -30 -14 -36 -9 -55 18 -62 22 -6 23 -3 7
23 -10 16 -9 29 5 71 14 38 16 54 8 62 -9 9 -18 4 -35 -18 -26 -32 -49 -27
-28 5 27 44 -5 41 -35 -3z"/>
<path d="M7310 10780 c0 -5 17 -10 38 -9 30 0 33 2 17 9 -28 12 -55 12 -55 0z"/>
<path d="M7990 10734 c-21 -47 -20 -74 0 -74 5 0 10 8 10 18 1 26 25 52 48 52
11 0 23 7 26 16 8 21 8 20 -32 29 -31 6 -33 5 -52 -41z"/>
<path d="M7788 10744 c-5 -4 -8 -19 -8 -33 0 -18 3 -22 11 -14 6 6 9 21 7 33
-1 12 -6 18 -10 14z"/>
<path d="M8107 10732 c-23 -25 -22 -35 2 -22 14 7 20 7 23 -1 2 -7 12 -7 31 2
28 13 36 29 15 29 -7 0 -22 3 -33 6 -13 3 -27 -2 -38 -14z"/>
<path d="M8197 10698 c-21 -12 -40 -32 -43 -45 -3 -12 -12 -27 -20 -34 -8 -6
-14 -15 -14 -20 0 -12 71 20 104 48 21 18 32 21 40 13 8 -8 5 -16 -11 -30 -13
-10 -23 -21 -23 -25 0 -4 7 -2 16 6 12 10 20 10 34 1 10 -6 21 -8 25 -4 6 6
35 70 35 78 0 2 -100 35 -104 34 -1 0 -18 -10 -39 -22z"/>
<path d="M2770 10665 c-101 -32 -179 -132 -188 -240 -14 -176 127 -285 300
-233 53 16 131 87 158 144 41 84 26 209 -33 272 -55 59 -156 83 -237 57z m122
-35 c83 -23 131 -91 132 -185 1 -129 -95 -225 -224 -225 -150 0 -229 159 -150
297 53 93 150 138 242 113z"/>
<path d="M8356 10633 l-17 -36 46 -40 c25 -21 55 -57 66 -78 18 -36 18 -41 4
-76 -16 -37 -16 -38 12 -58 140 -101 332 -279 442 -409 131 -155 304 -417 347
-525 l17 -44 20 39 c45 91 104 124 155 88 20 -13 28 -14 53 -4 24 10 39 10 70
1 22 -7 44 -9 49 -6 18 11 10 35 -11 35 -12 0 -59 18 -105 40 -95 46 -100 55
-55 117 50 69 165 129 225 118 55 -11 47 18 -31 107 -212 239 -546 469 -928
638 -139 62 -312 130 -331 130 -6 0 -18 -17 -28 -37z"/>
<path d="M8297 10544 c-3 -19 2 -29 19 -41 13 -8 24 -22 24 -29 0 -18 -10 -18
-35 -1 -22 15 -73 30 -59 18 5 -5 42 -29 82 -55 59 -37 77 -44 88 -35 17 14
17 46 0 77 -13 24 -92 92 -106 92 -4 0 -10 -12 -13 -26z"/>
<path d="M7350 10085 c48 -40 55 -43 40 -15 -9 18 -58 50 -75 50 -4 0 12 -16
35 -35z"/>
<path d="M2315 10016 c-95 -44 -159 -145 -158 -251 0 -99 39 -166 118 -208 83
-43 220 -15 285 60 55 62 74 111 75 190 0 76 -6 93 -29 74 -10 -8 -12 -24 -9
-51 9 -67 -15 -129 -72 -186 -83 -83 -186 -94 -265 -28 -45 39 -63 81 -64 149
-1 98 64 195 151 226 17 5 33 19 36 30 7 25 -7 24 -68 -5z"/>
<path d="M7511 9971 l-24 -6 32 -27 c17 -15 38 -25 46 -21 19 7 68 -24 59 -38
-3 -6 -13 -8 -23 -4 -9 3 13 -23 49 -59 68 -69 77 -77 62 -49 -6 11 -6 25 1
40 8 17 7 30 -3 51 -50 100 -114 137 -199 113z"/>
<path d="M7740 9880 c0 -5 5 -10 10 -10 6 0 10 5 10 10 0 6 -4 10 -10 10 -5 0
-10 -4 -10 -10z"/>
<path d="M7763 9833 c-3 -10 -8 -22 -11 -28 -3 -5 4 -1 16 9 24 20 28 36 12
36 -6 0 -13 -8 -17 -17z"/>
<path d="M7805 9799 c-4 -6 2 -20 14 -33 l20 -22 -24 -29 c-25 -31 -31 -45
-17 -45 5 0 23 20 40 45 32 45 32 46 15 70 -19 26 -38 32 -48 14z"/>
<path d="M9585 9744 c-56 -28 -125 -90 -125 -114 1 -20 112 -69 164 -73 41 -2
61 17 26 26 -38 10 -23 30 18 22 34 -6 36 -5 17 9 -16 12 -18 17 -7 27 9 10
15 10 24 1 7 -7 22 -12 35 -12 32 0 29 -16 -11 -51 -19 -16 -44 -49 -55 -73
-41 -83 0 -216 67 -216 77 0 142 84 142 184 0 60 -14 75 -25 26 -4 -16 -11
-32 -16 -36 -18 -11 -21 27 -4 62 9 20 14 38 11 42 -10 9 -33 -29 -56 -89 -21
-57 -50 -96 -50 -67 0 22 31 110 48 136 25 38 5 37 -30 -2 -33 -37 -48 -45
-48 -23 0 13 62 82 82 91 17 6 -45 63 -91 83 -56 24 -86 19 -137 -20 -26 -20
-51 -34 -56 -31 -14 9 40 62 85 85 32 17 44 18 80 9 23 -6 61 -25 85 -42 46
-32 74 -30 32 3 -35 27 -121 69 -139 68 -9 0 -38 -11 -66 -25z m142 -308 c-8
-19 -37 -21 -37 -3 0 7 5 18 12 25 15 15 33 -1 25 -22z m93 -32 c0 -13 -21
-44 -30 -44 -11 0 -14 33 -3 43 8 8 33 9 33 1z"/>
<path d="M7785 9740 c-3 -5 -1 -10 4 -10 6 0 11 5 11 10 0 6 -2 10 -4 10 -3 0
-8 -4 -11 -10z"/>
<path d="M7747 9719 c12 -12 25 -20 28 -17 3 3 -7 13 -22 23 l-28 17 22 -23z"/>
<path d="M7870 9705 c-12 -19 -29 -39 -38 -44 -15 -9 -15 -12 6 -33 l22 -22
16 22 c8 12 19 22 25 22 15 0 10 -27 -7 -45 -12 -12 -14 -19 -6 -27 14 -14 34
1 63 48 21 35 19 54 -7 54 -8 0 -14 7 -14 15 0 13 -3 13 -20 3 -25 -16 -35 -6
-20 21 18 34 3 24 -20 -14z"/>
<path d="M7960 9594 c-42 -60 -33 -67 14 -10 20 25 32 47 28 50 -5 3 -24 -15
-42 -40z"/>
<path d="M8048 9518 c-42 -25 -50 -54 -20 -81 17 -16 21 -14 60 27 39 41 41
44 23 60 -22 20 -18 20 -63 -6z"/>
<path d="M8130 9465 c-10 -12 -10 -15 4 -15 22 0 20 -13 -7 -38 -26 -25 -43
-28 -50 -9 -2 6 -8 9 -12 5 -9 -8 416 -440 555 -565 98 -86 130 -107 130 -83
0 5 14 26 32 46 l32 37 -69 61 c-38 33 -121 110 -185 169 l-115 109 -26 -31
c-26 -32 -49 -40 -49 -19 0 6 8 20 17 31 17 18 17 20 -12 44 -26 21 -37 23
-77 18 -58 -7 -63 8 -12 32 34 17 37 17 66 0 24 -14 17 -3 -33 54 -68 77 -84
88 -102 70 -8 -8 -7 -18 6 -40 21 -36 23 -81 2 -81 -8 0 -19 16 -25 40 -8 31
-17 41 -38 46 -15 3 -33 7 -39 10 -20 6 -15 32 8 44 16 9 23 8 33 -5 11 -15
13 -15 31 5 18 20 18 21 -10 50 -33 34 -38 36 -55 15z m190 -285 c0 -5 -2 -10
-4 -10 -3 0 -8 5 -11 10 -3 6 -1 10 4 10 6 0 11 -4 11 -10z"/>
<path d="M9378 9469 c-54 -31 -99 -187 -64 -221 11 -11 16 -34 16 -70 1 -75
19 -39 24 47 3 60 2 68 -15 72 -30 8 -25 62 11 111 17 23 34 42 38 42 20 0 21
-15 4 -34 -27 -30 -35 -56 -17 -56 8 0 15 -7 15 -15 0 -28 18 -15 25 18 4 17
14 44 23 59 10 18 13 31 7 37 -17 16 -49 21 -67 10z"/>
<path d="M9921 9463 c-1 -18 19 -67 25 -61 3 3 -2 21 -10 39 -8 19 -15 29 -15
22z"/>
<path d="M9563 9438 c-17 -38 -31 -124 -48 -293 -19 -191 -19 -198 5 -226 l20
-24 -10 29 c-7 20 -6 70 5 175 9 80 18 170 21 199 4 36 10 52 20 52 9 0 14
-10 14 -27 0 -40 -29 -295 -36 -316 -8 -24 4 -87 16 -87 6 0 10 37 11 83 0
105 20 219 38 225 11 4 12 -8 7 -62 -15 -161 -17 -201 -8 -186 5 8 12 47 16
85 7 81 14 144 21 200 5 32 4 38 -6 28 -7 -7 -19 -13 -27 -13 -12 0 -14 12 -9
61 6 56 6 60 -12 54 -17 -5 -20 0 -23 32 l-4 38 -11 -27z"/>
<path d="M9503 9417 c-6 -13 -14 -55 -18 -93 -8 -73 -19 -104 -36 -104 -10 0
-5 77 7 123 3 9 1 17 -4 17 -18 0 -49 -244 -33 -255 10 -6 12 1 15 50 1 11 6
20 11 20 6 0 9 -27 7 -67 -4 -83 14 -91 22 -10 18 168 31 253 51 320 10 29 -9
29 -22 -1z"/>
<path d="M9897 9383 c-15 -14 -6 -86 13 -110 l19 -25 21 34 c21 34 23 59 5 59
-5 0 -11 -9 -13 -21 -2 -11 -10 -20 -18 -20 -12 0 -15 10 -13 40 3 40 -2 56
-14 43z"/>
<path d="M9840 9285 c0 -8 5 -15 10 -15 6 0 10 7 10 15 0 8 -4 15 -10 15 -5 0
-10 -7 -10 -15z"/>
<path d="M9680 9236 c0 -13 -3 -45 -6 -72 -4 -33 -3 -46 3 -39 14 14 25 135
13 135 -6 0 -10 -11 -10 -24z"/>
<path d="M9737 9253 c-4 -3 -7 -18 -7 -31 0 -24 1 -25 20 -7 11 10 20 24 20
32 0 14 -22 18 -33 6z"/>
<path d="M9991 9224 c0 -11 3 -14 6 -6 3 7 2 16 -1 19 -3 4 -6 -2 -5 -13z"/>
<path d="M9860 9214 c0 -8 5 -12 10 -9 6 4 8 11 5 16 -9 14 -15 11 -15 -7z"/>
<path d="M9752 9164 c-23 -31 -42 -61 -42 -68 0 -6 -12 -41 -26 -78 -20 -53
-30 -68 -46 -68 -26 0 -18 -24 9 -28 22 -3 53 30 53 57 0 22 49 121 86 174 37
51 42 67 21 67 -8 0 -32 -25 -55 -56z"/>
<path d="M9913 9194 c-47 -20 -40 -34 17 -34 54 0 55 1 40 31 -12 22 -14 22
-57 3z"/>
<path d="M9882 9102 c-25 -12 -35 -13 -41 -4 -5 8 -20 -1 -49 -30 -41 -40 -60
-77 -48 -96 3 -5 52 -12 108 -16 57 -3 118 -9 136 -12 28 -6 32 -4 32 16 0 17
-4 21 -20 17 -30 -8 -34 10 -5 29 36 23 31 36 -10 28 -22 -4 -35 -2 -35 4 0 6
16 16 35 22 19 6 35 15 35 20 0 14 -110 -17 -141 -39 -33 -24 -49 -27 -49 -8
0 15 88 67 114 67 9 0 16 5 16 10 0 15 -41 11 -78 -8z m38 -97 c0 -8 -7 -15
-15 -15 -8 0 -15 7 -15 15 0 8 7 15 15 15 8 0 15 -7 15 -15z"/>
<path d="M9330 9058 c0 -9 5 -20 11 -23 17 -11 18 -2 3 19 -12 17 -14 17 -14
4z"/>
<path d="M9410 9003 c-65 -18 -150 -66 -150 -85 0 -6 6 -6 15 2 9 7 18 10 22
7 3 -4 -13 -27 -36 -53 -53 -56 -45 -73 8 -19 95 97 139 136 145 126 10 -15
-29 -63 -80 -102 -40 -30 -55 -49 -37 -49 10 0 76 53 100 80 24 29 44 20 24
-12 -8 -14 -9 -24 -2 -31 6 -6 5 -17 -5 -32 -10 -16 -12 -25 -5 -30 17 -10 28
2 45 52 32 92 11 161 -44 146z"/>
<path d="M9785 8923 c-33 -4 -75 -23 -75 -33 0 -11 36 -50 46 -50 5 0 22 14
38 30 15 16 41 32 57 35 16 4 31 11 34 16 6 9 -40 10 -100 2z"/>
<path d="M9980 8885 c13 -14 25 -25 27 -25 2 0 3 11 3 25 0 20 -5 25 -27 25
l-26 0 23 -25z"/>
<path d="M9571 8864 c-26 -33 -26 -40 2 -88 23 -41 59 -67 38 -28 -14 27 -14
32 4 32 17 0 45 -50 45 -80 0 -23 22 -27 39 -6 14 17 -4 59 -38 90 -24 22 -27
36 -7 36 23 0 73 -65 91 -119 9 -28 21 -51 26 -51 6 0 8 8 5 18 -20 74 -16 98
12 70 9 -9 12 -9 12 3 0 9 -34 46 -76 82 -86 77 -118 85 -153 41z"/>
<path d="M9861 8872 c-44 -17 -72 -45 -58 -58 4 -4 16 1 27 11 25 23 28 0 3
-27 -9 -10 -13 -21 -9 -25 4 -4 15 3 25 16 13 17 20 20 26 12 4 -7 -2 -22 -14
-35 -22 -23 -28 -46 -11 -46 13 0 60 71 60 92 0 22 19 33 32 20 8 -8 4 -24
-10 -53 -12 -24 -20 -44 -18 -46 8 -8 66 76 66 95 0 21 -43 62 -64 61 -6 0
-31 -8 -55 -17z"/>
<path d="M4305 8860 c-9 -14 40 -60 65 -60 11 0 20 6 20 13 0 17 -77 60 -85
47z"/>
<path d="M9486 8854 c-11 -30 -6 -37 14 -19 11 10 20 22 20 27 0 15 -28 9 -34
-8z"/>
<path d="M4453 8848 c-30 -14 -29 -22 6 -47 29 -21 29 -21 24 -1 -3 11 -2 20
2 20 11 0 44 -43 45 -58 0 -16 32 -12 37 5 5 14 -64 93 -81 92 -6 0 -21 -5
-33 -11z"/>
<path d="M9360 8840 c-8 -5 -12 -11 -9 -14 3 -3 14 1 25 9 21 16 8 20 -16 5z"/>
<path d="M8807 8788 c-37 -50 -39 -65 -14 -89 24 -22 42 -22 117 5 25 9 59 19
75 22 30 6 30 6 -15 20 -41 13 -47 12 -72 -6 -15 -11 -30 -20 -33 -20 -11 0
-4 28 10 40 8 7 15 17 15 23 0 6 -13 -1 -28 -16 -15 -15 -31 -27 -35 -27 -14
0 -6 27 13 45 19 17 19 35 0 35 -5 0 -20 -15 -33 -32z"/>
<path d="M4217 8781 c-6 -25 28 -57 71 -66 42 -9 41 3 -6 48 -43 42 -57 46
-65 18z"/>
<path d="M9497 8776 c-32 -48 -10 -89 24 -45 22 29 22 30 6 53 -13 17 -14 17
-30 -8z"/>
<path d="M4371 8771 c-29 -23 -23 -45 19 -69 16 -9 30 -20 30 -24 0 -14 -33
-8 -52 9 -25 22 -30 13 -16 -25 10 -26 10 -37 0 -52 -15 -24 -16 -40 -2 -40 5
0 12 11 16 25 3 14 12 25 19 25 32 0 72 32 82 65 10 30 8 39 -11 67 -26 39
-52 45 -85 19z"/>
<path d="M9264 8779 c-3 -5 3 -9 13 -9 22 0 63 -27 63 -42 0 -10 -14 -8 -55 7
-14 6 -8 -5 18 -31 20 -22 37 -43 37 -47 0 -18 -27 -3 -83 48 -71 63 -96 59
-48 -8 34 -47 111 -110 149 -122 40 -12 89 3 112 35 27 38 20 63 -37 125 -44
49 -42 39 4 -18 41 -51 12 -50 -41 1 -50 49 -119 81 -132 61z m137 -101 c19
-23 26 -58 11 -58 -10 0 -52 56 -52 70 0 17 21 11 41 -12z"/>
<path d="M4586 8735 c-11 -8 -30 -15 -42 -15 -29 0 -36 -12 -28 -45 5 -20 12
-25 39 -25 37 0 65 32 65 75 0 29 -7 31 -34 10z"/>
<path d="M9024 8665 c-38 -88 -34 -108 31 -145 41 -23 59 -29 72 -21 33 17 63
57 70 91 6 32 5 34 -11 21 -24 -20 -30 -8 -15 33 7 20 9 39 5 43 -10 10 -25
-16 -31 -57 -12 -72 -42 -86 -37 -17 2 32 0 38 -15 35 -10 -2 -22 -18 -28 -40
-11 -40 -28 -53 -33 -25 -3 16 10 63 33 120 4 10 3 17 -4 17 -7 0 -23 -25 -37
-55z m96 -135 c0 -5 -4 -10 -10 -10 -5 0 -10 5 -10 10 0 6 5 10 10 10 6 0 10
-4 10 -10z"/>
<path d="M9800 8706 c0 -9 5 -16 10 -16 6 0 10 4 10 9 0 6 -4 13 -10 16 -5 3
-10 -1 -10 -9z"/>
<path d="M9580 8686 c0 -9 7 -16 16 -16 9 0 14 5 12 12 -6 18 -28 21 -28 4z"/>
<path d="M4290 8671 c0 -6 5 -13 10 -16 6 -3 10 1 10 9 0 9 -4 16 -10 16 -5 0
-10 -4 -10 -9z"/>
<path d="M8892 8661 l-34 -17 41 -27 40 -27 11 38 c5 20 10 40 10 45 0 12 -34
7 -68 -12z"/>
<path d="M9538 8625 c-54 -30 -89 -130 -56 -163 20 -20 102 -14 149 11 43 22
139 105 139 119 0 17 -57 -6 -95 -39 -43 -37 -57 -30 -28 14 17 26 15 26 -29
-9 -45 -37 -68 -47 -68 -29 0 5 20 25 46 46 53 44 51 59 -4 21 -21 -14 -41
-26 -45 -26 -16 0 -5 22 21 45 31 28 14 33 -30 10z"/>
<path d="M4201 8597 c-9 -11 -8 -17 4 -27 8 -7 15 -25 15 -41 0 -27 44 -88 56
-77 3 3 -2 13 -10 21 -9 9 -13 22 -10 30 3 8 0 18 -5 22 -6 3 -8 11 -5 17 4 7
14 2 25 -13 10 -13 20 -21 24 -18 9 10 -26 77 -44 83 -9 3 -21 8 -27 11 -6 3
-16 -1 -23 -8z"/>
<path d="M9240 8592 c0 -13 13 -24 40 -35 45 -17 50 -14 18 14 -43 36 -58 42
-58 21z"/>
<path d="M4422 8545 c4 -21 1 -25 -17 -25 -13 0 -26 -7 -29 -16 -9 -23 -8 -24
12 -24 27 1 51 25 58 59 5 25 3 31 -11 31 -13 0 -16 -6 -13 -25z"/>
<path d="M9815 8540 c3 -5 8 -10 11 -10 2 0 4 5 4 10 0 6 -5 10 -11 10 -5 0
-7 -4 -4 -10z"/>
<path d="M9210 8500 c0 -40 15 -54 26 -25 8 20 -4 65 -16 65 -6 0 -10 -18 -10
-40z"/>
<path d="M9365 8532 c-12 -8 -35 -57 -35 -74 0 -6 11 6 25 27 25 36 30 62 10
47z"/>
<path d="M9391 8491 c-30 -45 -34 -71 -11 -71 9 0 60 93 60 110 0 21 -16 8
-49 -39z"/>
<path d="M9755 8519 c-8 -25 -3 -31 19 -23 20 8 21 44 2 44 -8 0 -18 -9 -21
-21z"/>
<path d="M4087 8513 c-15 -15 -5 -46 22 -68 21 -18 27 -31 24 -49 -4 -20 0
-28 21 -37 14 -7 35 -31 47 -56 11 -23 25 -41 30 -37 14 8 11 34 -5 40 -19 7
-59 83 -52 100 3 7 -4 24 -15 38 -28 36 -5 33 27 -3 31 -35 69 -50 54 -21 -29
54 -131 116 -153 93z"/>
<path d="M9290 8495 c0 -8 5 -15 10 -15 6 0 10 7 10 15 0 8 -4 15 -10 15 -5 0
-10 -7 -10 -15z"/>
<path d="M4579 8477 c-31 -21 -42 -48 -15 -38 6 3 25 4 41 4 32 -1 45 11 45
40 0 24 -30 22 -71 -6z"/>
<path d="M9684 8465 c-10 -8 -14 -14 -9 -15 15 0 40 18 34 24 -3 3 -14 -1 -25
-9z"/>
<path d="M4422 8453 c2 -9 9 -18 16 -21 18 -6 15 25 -4 32 -11 4 -14 1 -12
-11z"/>
<path d="M4308 8404 c-5 -4 -8 -16 -8 -28 0 -14 3 -17 11 -9 6 6 9 19 7 28 -1
9 -6 13 -10 9z"/>
<path d="M4365 8390 c3 -5 8 -10 11 -10 2 0 4 5 4 10 0 6 -5 10 -11 10 -5 0
-7 -4 -4 -10z"/>
<path d="M4425 8380 c-4 -7 2 -25 13 -40 12 -15 24 -40 28 -54 3 -14 10 -29
16 -32 13 -8 54 21 75 52 16 26 16 27 -6 45 -30 24 -60 27 -37 3 17 -17 21
-44 7 -44 -5 0 -11 7 -15 15 -3 8 -12 15 -20 15 -8 0 -16 10 -18 22 -3 25 -32
36 -43 18z"/>
<path d="M4360 8325 c-5 -14 -14 -25 -19 -25 -5 0 -12 -7 -15 -16 -6 -16 5
-12 34 11 8 7 24 15 35 19 18 7 18 5 -3 -17 -27 -29 -28 -37 -3 -37 27 0 34
15 27 56 -8 42 -41 48 -56 9z"/>
<path d="M4035 8320 c-3 -5 1 -10 10 -10 9 0 13 5 10 10 -3 6 -8 10 -10 10 -2
0 -7 -4 -10 -10z"/>
<path d="M4296 8314 c-9 -24 -8 -26 14 -14 11 6 20 15 20 20 0 16 -27 11 -34
-6z"/>
<path d="M12544 8266 c-36 -36 -43 -66 -19 -86 30 -25 106 15 126 67 13 36 1
53 -38 53 -26 0 -43 -8 -69 -34z"/>
<path d="M4422 8258 c-19 -19 -14 -28 13 -28 27 0 32 12 12 29 -10 8 -17 7
-25 -1z"/>
<path d="M4303 8239 c-23 -8 -32 -39 -12 -39 14 0 41 28 37 39 -2 5 -13 5 -25
0z"/>
<path d="M4350 8235 c-20 -24 -6 -28 15 -5 10 11 13 20 8 20 -6 0 -16 -7 -23
-15z"/>
<path d="M4230 8200 c-12 -8 -10 -10 8 -10 13 0 20 4 17 10 -7 12 -6 12 -25 0z"/>
<path d="M4009 8143 c-35 -21 -62 -76 -46 -92 17 -17 37 -13 37 9 0 24 26 26
57 5 18 -13 22 -13 33 0 7 8 19 15 26 15 23 0 16 47 -8 64 -29 20 -66 20 -99
-1z m81 -33 c0 -5 -4 -10 -9 -10 -6 0 -13 5 -16 10 -3 6 1 10 9 10 9 0 16 -4
16 -10z"/>
<path d="M4305 8139 c-10 -29 1 -35 25 -14 25 23 25 35 1 35 -11 0 -23 -9 -26
-21z"/>
<path d="M4371 8129 c-31 -19 -32 -21 -17 -38 9 -10 16 -23 16 -29 0 -7 4 -12
8 -12 14 0 32 23 32 41 0 10 5 19 12 21 12 4 4 38 -9 38 -4 0 -23 -9 -42 -21z"/>
<path d="M4315 8079 c-4 -6 -5 -13 -2 -16 7 -7 27 6 27 18 0 12 -17 12 -25 -2z"/>
<path d="M4474 8056 c-10 -8 -24 -12 -30 -9 -7 2 -20 -7 -29 -21 -9 -14 -25
-28 -36 -31 -10 -4 -19 -15 -19 -26 0 -24 12 -24 35 1 24 26 34 25 28 -2 l-5
-23 20 23 c22 24 32 28 32 12 0 -19 -35 -50 -55 -50 -24 0 -45 -18 -45 -38 0
-9 7 -11 20 -7 24 8 26 -2 3 -27 -14 -15 -14 -18 -1 -18 8 0 28 18 43 40 15
22 31 40 36 40 16 0 46 135 31 144 -5 3 -17 -1 -28 -8z"/>
<path d="M4020 8040 c0 -5 5 -10 10 -10 6 0 10 5 10 10 0 6 -4 10 -10 10 -5 0
-10 -4 -10 -10z"/>
<path d="M3901 7985 c-34 -39 -38 -60 -17 -87 18 -24 33 -23 47 5 6 12 21 30
33 39 17 13 18 20 9 29 -10 10 -17 9 -33 -6 -11 -10 -23 -15 -26 -12 -7 7 35
46 49 47 4 0 7 5 7 10 0 22 -40 8 -69 -25z"/>
<path d="M12606 7980 c-66 -58 -72 -159 -15 -224 34 -40 36 -46 9 -46 -11 0
-20 -4 -20 -10 0 -13 25 -12 148 8 57 9 102 22 100 27 -1 6 -8 9 -15 7 -8 -2
-5 13 8 44 49 110 -19 224 -133 224 -38 0 -54 -6 -82 -30z m158 -20 c68 -60
70 -150 5 -204 -47 -40 -108 -36 -153 8 -114 115 27 302 148 196z"/>
<path d="M4153 7978 c-34 -20 -44 -48 -19 -48 8 0 21 6 28 14 8 7 24 17 36 20
26 9 30 36 5 35 -10 0 -33 -10 -50 -21z"/>
<path d="M4047 7912 c-15 -15 -27 -36 -27 -45 0 -9 -4 -17 -10 -17 -5 0 -10 9
-10 21 0 27 -24 19 -28 -9 -2 -12 -8 -22 -14 -22 -6 0 -8 10 -4 25 7 29 -1 32
-20 8 -19 -25 -17 -67 4 -85 31 -28 84 -50 106 -44 43 11 65 94 34 133 -5 6
-6 23 -2 37 8 33 4 33 -29 -2z m10 -72 c2 -38 -9 -60 -22 -40 -7 11 4 80 14
80 3 0 7 -18 8 -40z"/>
<path d="M4215 7910 c3 -5 11 -10 16 -10 6 0 7 5 4 10 -3 6 -11 10 -16 10 -6
0 -7 -4 -4 -10z"/>
<path d="M3835 7898 c-11 -33 -36 -276 -45 -445 -13 -231 -2 -517 22 -536 42
-34 66 -91 85 -202 4 -30 -5 -63 -29 -98 -11 -15 -10 -20 3 -30 30 -22 86
-103 99 -142 16 -48 6 -135 -22 -191 l-20 -42 22 -68 c13 -38 24 -71 26 -73 3
-3 11 4 18 15 12 16 18 17 34 7 11 -7 35 -10 54 -7 45 8 62 -13 81 -99 18 -79
12 -109 -32 -169 -37 -50 -37 -55 -9 -120 19 -45 23 -48 30 -29 20 55 77 27
116 -57 25 -55 32 -120 22 -213 -2 -17 17 -57 56 -119 l58 -94 18 99 c33 176
38 227 26 270 -5 22 -14 63 -19 90 -4 28 -19 100 -33 160 -14 61 -29 128 -34
150 -5 22 -15 81 -22 130 -7 50 -19 122 -26 160 -8 39 -17 105 -21 148 -7 88
-23 108 -55 66 -44 -57 -58 -69 -81 -69 -16 0 -33 -10 -45 -27 -12 -16 -25
-24 -34 -20 -29 11 -7 55 63 129 38 40 69 75 69 79 0 3 -12 9 -27 12 -70 15
-138 85 -149 153 -5 34 -2 45 18 69 18 20 30 26 43 21 17 -6 17 -8 -4 -27 -31
-29 -21 -59 35 -111 55 -51 114 -92 121 -85 2 3 -8 13 -24 23 -44 28 -83 66
-77 76 4 5 16 0 29 -12 26 -25 58 -23 63 3 3 12 -9 23 -40 36 -85 37 -100 68
-62 128 8 12 14 24 14 27 0 8 -101 -3 -137 -15 -54 -17 -64 1 -26 49 52 64 49
95 -12 112 -60 17 -70 30 -52 72 17 40 41 62 82 75 30 10 30 10 30 84 0 41 4
79 8 85 11 19 74 45 91 38 23 -9 20 -32 -4 -36 -17 -3 -16 -5 11 -21 31 -17
31 -17 26 3 -3 13 0 20 9 20 8 0 14 7 14 15 0 8 -9 15 -19 15 -24 0 -75 58
-147 169 -42 63 -54 89 -50 107 8 29 60 58 91 50 16 -4 25 0 33 18 16 36 0 52
-32 31 -23 -15 -32 -16 -71 -5 -53 15 -95 53 -95 88 0 28 -58 100 -65 80z"/>
<path d="M4120 7896 c0 -7 12 -21 26 -31 14 -9 23 -19 20 -22 -3 -4 -14 1 -24
10 -32 29 -33 6 -1 -34 21 -26 39 -39 55 -39 32 0 74 28 73 49 0 16 -43 56
-74 67 -15 6 -16 4 -6 -14 19 -36 12 -38 -18 -4 -32 34 -51 41 -51 18z"/>
<path d="M4555 7807 c-12 -9 -16 -20 -12 -32 7 -16 9 -16 30 -2 23 15 29 38
12 44 -6 2 -19 -3 -30 -10z"/>
<path d="M4275 7730 c-49 -32 -53 -94 -9 -130 16 -14 17 -13 10 13 -9 36 5 34
26 -3 17 -29 38 -40 38 -20 0 6 -4 10 -10 10 -5 0 -10 6 -10 13 0 7 -11 24
-23 38 -18 19 -22 30 -16 47 8 20 10 21 43 7 61 -26 92 -12 44 19 -41 25 -62
26 -93 6z"/>
<path d="M4431 7705 c-17 -15 -31 -30 -31 -35 0 -13 48 2 66 21 20 23 34 24
34 5 0 -8 -12 -23 -27 -35 -28 -19 -28 -20 -8 -35 29 -22 36 -20 73 24 46 56
40 74 -24 78 -43 2 -56 -1 -83 -23z"/>
<path d="M4130 7700 c0 -17 51 -33 64 -20 8 8 7 14 -4 20 -20 13 -60 13 -60 0z"/>
<path d="M4027 7641 c-17 -34 -12 -71 9 -71 8 0 14 5 14 10 0 19 16 10 33 -20
16 -26 16 -30 3 -30 -10 0 -13 -6 -9 -16 5 -14 9 -13 24 7 10 13 19 27 19 30
0 3 -16 23 -35 45 -27 30 -32 40 -20 42 20 4 14 26 -7 30 -10 2 -22 -9 -31
-27z"/>
<path d="M4575 7640 c-3 -6 1 -7 9 -4 18 7 21 14 7 14 -6 0 -13 -4 -16 -10z"/>
<path d="M4100 7617 c0 -16 9 -28 25 -35 51 -24 59 -11 20 31 -32 33 -45 34
-45 4z"/>
<path d="M4455 7580 c-3 -5 0 -12 6 -16 8 -4 7 -9 -2 -15 -9 -6 -3 -7 16 -3
23 4 35 0 49 -15 11 -12 16 -24 12 -28 -3 -4 -16 4 -28 17 -15 16 -23 19 -26
11 -3 -8 2 -17 9 -22 7 -4 11 -11 7 -14 -3 -3 -21 3 -39 14 -53 33 -67 25 -29
-14 19 -20 52 -40 74 -46 36 -10 41 -8 64 14 23 23 24 28 12 56 -16 39 -111
84 -125 61z"/>
<path d="M4185 7536 c-15 -13 -33 -22 -40 -20 -6 3 -18 -2 -25 -11 -11 -14
-10 -20 11 -41 24 -24 27 -24 78 -11 76 19 99 61 35 64 -46 2 -54 11 -30 29
11 8 15 14 9 14 -5 0 -23 -11 -38 -24z"/>
<path d="M12788 7527 c-117 -14 -178 -25 -178 -33 0 -6 10 -10 23 -8 12 2 90
10 172 19 197 20 226 25 219 36 -7 11 -20 11 -236 -14z"/>
<path d="M4345 7486 c-16 -12 -17 -16 -6 -30 22 -26 41 -19 41 14 0 33 -7 37
-35 16z"/>
<path d="M4286 7447 l-19 -28 29 -32 c39 -42 45 -47 76 -53 15 -4 29 -12 32
-20 3 -8 11 -14 17 -14 8 0 8 4 -1 14 -9 12 -7 22 12 48 12 18 24 35 26 38 2
3 13 -7 24 -23 25 -34 61 -37 56 -4 -2 14 -10 23 -23 23 -11 1 -31 6 -46 12
-14 5 -32 6 -40 2 -7 -4 -36 -10 -64 -11 l-50 -4 -5 40 -5 40 -19 -28z"/>
<path d="M4407 7446 c-4 -10 -1 -13 8 -9 8 3 12 9 9 14 -7 12 -11 11 -17 -5z"/>
<path d="M4961 7418 c-15 -16 -24 -18 -33 -10 -19 15 -43 -1 -34 -23 5 -13 13
-16 34 -11 15 4 39 10 55 13 20 4 27 11 27 29 0 30 -22 31 -49 2z"/>
<path d="M4210 7390 c0 -5 7 -10 15 -10 8 0 15 5 15 10 0 6 -7 10 -15 10 -8 0
-15 -4 -15 -10z"/>
<path d="M4290 7331 c0 -12 6 -21 16 -21 9 0 14 7 12 17 -5 25 -28 28 -28 4z"/>
<path d="M4065 7319 c-10 -15 3 -25 16 -12 7 7 7 13 1 17 -6 3 -14 1 -17 -5z"/>
<path d="M10513 7319 c-28 -10 -31 -22 -38 -204 -22 -525 -152 -1031 -385
-1496 -315 -627 -869 -1197 -1440 -1480 -268 -133 -507 -188 -813 -189 -258 0
-475 35 -710 116 -802 277 -1509 991 -1861 1881 -31 78 -56 147 -56 153 0 7
-4 10 -9 8 -28 -10 -206 -199 -262 -277 -13 -19 -44 -73 -69 -120 -33 -64 -50
-85 -63 -83 -22 4 -34 -25 -19 -49 9 -14 6 -30 -14 -76 -15 -32 -37 -87 -51
-123 -13 -36 -38 -92 -55 -126 -31 -60 -31 -62 -15 -96 19 -41 126 -368 136
-419 4 -20 17 -49 28 -65 27 -37 72 -79 78 -72 7 7 -37 134 -73 210 -26 56
-42 98 -83 226 -6 19 -11 79 -10 134 1 138 26 217 93 292 53 60 62 64 89 40
15 -13 16 -30 12 -137 -7 -160 6 -254 61 -420 62 -189 68 -212 73 -292 5 -64
4 -91 0 -179 -3 -51 19 -39 38 21 12 40 19 101 23 198 4 120 1 153 -17 228
-24 96 -49 168 -83 234 -19 35 -20 45 -10 67 9 20 19 26 44 26 26 0 42 -11 86
-56 43 -44 51 -58 42 -69 -13 -16 -5 -51 19 -79 13 -16 13 -18 1 -14 -8 2 -25
22 -37 44 -26 45 -30 38 -7 -12 9 -19 14 -38 10 -41 -7 -8 -4 -13 -43 65 -18
34 -30 62 -27 62 3 0 19 -7 35 -16 17 -8 33 -13 36 -11 9 10 -99 108 -116 105
-21 -4 -26 -43 -9 -71 25 -39 65 -150 83 -232 26 -116 27 -343 2 -408 -20 -52
-17 -90 3 -42 7 17 22 66 34 110 22 87 26 234 8 312 -5 23 -6 57 -2 75 8 32 8
32 9 5 1 -15 12 -44 24 -65 26 -41 42 -92 29 -92 -9 0 -8 -84 1 -110 12 -32
17 -130 7 -130 -5 0 -10 5 -10 10 0 6 -5 10 -10 10 -7 0 -7 -6 -1 -19 12 -22
5 -51 -37 -143 -33 -72 -28 -102 7 -42 12 19 21 37 21 40 0 3 8 21 17 42 9 20
20 48 23 62 3 14 8 20 12 14 7 -10 -25 -111 -57 -177 -9 -21 -16 -39 -14 -41
181 -146 508 -338 759 -444 715 -302 1549 -330 2284 -75 489 169 910 436 1286
812 527 528 886 1204 1014 1911 45 245 80 671 63 742 -8 30 -51 49 -84 37z
m-5269 -2281 c28 -80 36 -113 45 -198 10 -91 -2 -247 -21 -265 -7 -7 -8 9 -3
50 18 150 5 317 -24 307 -7 -2 -17 2 -22 9 -10 17 -9 139 2 139 4 0 14 -19 23
-42z m13 -310 c-3 -8 -6 -5 -6 6 -1 11 2 17 5 13 3 -3 4 -12 1 -19z"/>
<path d="M5220 4960 c0 -5 7 -10 15 -10 8 0 15 5 15 10 0 6 -7 10 -15 10 -8 0
-15 -4 -15 -10z"/>
<path d="M12934 7316 c-7 -19 3 -36 22 -36 10 0 14 8 12 22 -4 26 -26 36 -34
14z"/>
<path d="M4210 7313 c0 -5 5 -15 10 -23 9 -13 11 -13 19 0 5 8 7 18 5 22 -6
10 -34 11 -34 1z"/>
<path d="M12780 7303 c-100 -7 -150 -15 -150 -24 0 -9 141 -5 218 7 39 6 43
25 5 22 -16 -1 -48 -3 -73 -5z"/>
<path d="M4075 7270 c-29 -31 -29 -56 0 -94 12 -15 17 -17 29 -7 8 7 12 19 9
27 -8 22 34 17 57 -6 11 -11 20 -27 20 -36 0 -8 4 -13 9 -10 10 7 8 67 -3 85
-4 6 -12 11 -18 11 -6 0 -4 -8 5 -18 23 -26 21 -35 -3 -15 -11 10 -20 25 -20
34 0 15 -20 38 -46 52 -6 4 -23 -7 -39 -23z"/>
<path d="M4367 7293 c-12 -11 -8 -23 8 -23 8 0 15 7 15 15 0 16 -12 20 -23 8z"/>
<path d="M4454 7212 c-23 -19 -46 -67 -37 -76 14 -14 33 -4 33 17 0 13 9 26
22 32 25 11 37 45 16 45 -7 0 -22 -8 -34 -18z"/>
<path d="M4298 7208 c-21 -16 -61 -88 -49 -88 5 0 11 7 15 15 3 8 11 15 17 15
7 0 21 7 31 17 10 9 21 13 26 9 4 -4 -5 -18 -20 -30 -16 -12 -28 -27 -28 -34
0 -15 13 -15 28 0 10 10 15 10 21 -1 14 -22 38 -6 51 34 10 31 10 39 -6 56
-19 22 -62 25 -86 7z"/>
<path d="M4032 7153 c-28 -6 -92 -65 -92 -87 0 -9 8 -19 18 -22 9 -3 31 -12
49 -19 26 -11 33 -12 42 -1 6 7 8 16 4 20 -4 3 2 13 13 20 15 12 17 17 7 27
-10 10 -16 10 -25 1 -7 -7 -23 -12 -37 -12 l-26 0 32 29 c37 32 70 32 99 0 9
-10 26 -19 37 -19 16 0 17 2 6 16 -26 31 -88 54 -127 47z"/>
<path d="M4480 7140 c0 -11 -4 -20 -10 -20 -13 0 -13 -37 -1 -45 12 -7 17 2
25 48 4 23 3 37 -4 37 -5 0 -10 -9 -10 -20z"/>
<path d="M4990 7141 c0 -6 5 -13 10 -16 6 -3 10 1 10 9 0 9 -4 16 -10 16 -5 0
-10 -4 -10 -9z"/>
<path d="M4420 7085 c-9 -11 -10 -19 -3 -26 8 -8 13 -5 18 11 9 28 2 35 -15
15z"/>
<path d="M12698 7083 c-32 -2 -58 -9 -58 -14 0 -7 41 -9 111 -8 100 3 113 1
125 -16 19 -26 17 -59 -4 -78 -14 -13 -39 -17 -103 -17 -89 0 -129 -7 -129
-21 0 -5 49 -9 109 -9 86 0 113 -3 125 -16 22 -21 20 -60 -3 -83 -18 -18 -30
-19 -125 -14 -69 4 -106 2 -106 -4 0 -12 79 -23 163 -23 48 0 62 4 82 25 29
28 33 79 10 111 -12 19 -12 24 0 40 18 23 19 57 3 101 l-12 33 -66 -2 c-36 -1
-91 -3 -122 -5z"/>
<path d="M4325 7070 c-3 -5 -4 -14 -1 -18 3 -4 -21 -8 -52 -8 -45 1 -57 -2
-60 -16 -5 -26 37 -46 108 -50 63 -3 65 -2 68 23 2 14 -6 37 -18 52 -23 29
-35 33 -45 17z"/>
<path d="M4146 7021 c-3 -4 0 -22 6 -39 13 -35 2 -57 -14 -29 -7 14 -17 17
-34 13 -20 -5 -24 -3 -22 11 2 11 -3 18 -12 18 -9 0 -16 -11 -18 -26 -3 -28
47 -89 73 -89 21 0 85 65 85 86 0 11 -11 29 -24 42 -26 24 -32 26 -40 13z"/>
<path d="M4230 6931 c-5 -11 -10 -27 -10 -35 0 -20 29 -21 36 -1 4 8 12 15 20
15 20 0 17 18 -5 30 -26 14 -29 13 -41 -9z"/>
<path d="M4825 6920 c-9 -15 5 -120 16 -120 17 0 23 32 10 52 -8 13 -8 24 -2
36 9 15 10 14 11 -6 0 -13 5 -32 11 -43 5 -11 11 -38 11 -60 0 -38 10 -50 23
-28 10 15 -16 141 -33 162 -17 19 -38 22 -47 7z"/>
<path d="M4997 6924 c-4 -4 -4 -17 -1 -29 3 -13 -6 -44 -25 -80 -33 -63 -36
-75 -23 -75 5 0 17 17 28 38 10 20 27 49 37 64 10 16 17 40 15 55 -3 26 -18
39 -31 27z"/>
<path d="M4920 6908 c0 -9 5 -20 10 -23 13 -8 13 5 0 25 -8 13 -10 13 -10 -2z"/>
<path d="M4010 6895 c-7 -9 -11 -18 -8 -21 9 -9 59 16 53 26 -9 15 -31 12 -45
-5z"/>
<path d="M3800 6872 c0 -5 7 -17 15 -28 8 -10 15 -26 15 -35 0 -9 7 -22 15
-29 13 -11 15 -9 15 13 0 13 -7 30 -15 37 -8 7 -15 21 -15 31 0 11 -7 19 -15
19 -8 0 -15 -4 -15 -8z"/>
<path d="M4251 6836 c-11 -13 -10 -21 5 -43 l19 -28 3 27 c2 15 -1 35 -6 43
-8 15 -10 15 -21 1z"/>
<path d="M4460 6805 c-9 -11 -10 -22 -3 -38 7 -15 7 -29 0 -45 -12 -25 -1 -44
13 -22 9 13 10 13 10 0 0 -8 -9 -28 -20 -45 -25 -38 -25 -44 3 -43 32 2 48 17
38 36 -5 8 -6 33 -3 55 3 24 1 42 -7 46 -13 8 -5 41 10 41 5 0 9 7 9 15 0 20
-34 19 -50 0z"/>
<path d="M4200 6770 c0 -24 25 -27 34 -4 9 23 8 24 -14 24 -13 0 -20 -7 -20
-20z"/>
<path d="M5003 6740 c-17 -10 -37 -29 -44 -42 -7 -13 -19 -28 -28 -35 -9 -7
-13 -13 -9 -13 4 0 31 18 60 40 29 22 56 40 61 40 4 0 7 7 7 15 0 20 -9 19
-47 -5z"/>
<path d="M3847 6698 c-7 -54 -3 -68 12 -52 16 15 17 104 2 104 -4 0 -11 -23
-14 -52z"/>
<path d="M4770 6704 c0 -26 27 -64 46 -64 20 0 17 11 -16 50 -25 28 -30 31
-30 14z"/>
<path d="M5003 6686 c-15 -13 -25 -27 -22 -30 9 -10 69 27 69 42 0 19 -16 15
-47 -12z"/>
<path d="M4080 6666 c0 -2 7 -9 15 -16 12 -10 15 -10 15 4 0 9 -7 16 -15 16
-8 0 -15 -2 -15 -4z"/>
<path d="M4752 6650 c5 -17 56 -55 63 -48 3 3 -11 18 -31 33 -20 16 -35 22
-32 15z"/>
<path d="M5008 6602 c-32 -14 -58 -29 -58 -34 0 -18 66 -7 94 15 46 37 27 46
-36 19z"/>
<path d="M4840 6596 c0 -8 5 -18 10 -21 6 -3 10 -13 10 -21 0 -8 -4 -14 -10
-14 -5 0 -10 7 -10 15 0 8 -4 15 -9 15 -4 0 -6 -11 -4 -24 3 -13 -3 -40 -12
-61 -13 -27 -15 -39 -6 -48 8 -8 11 -5 11 12 0 12 4 19 10 16 6 -3 10 -1 10 5
0 6 12 27 27 46 22 29 25 40 17 62 -10 29 -44 43 -44 18z"/>
<path d="M12686 6592 c-59 -41 -85 -111 -66 -181 10 -39 35 -69 47 -58 3 4 -1
17 -9 29 -52 81 -6 190 87 205 l38 6 -6 -64 c-4 -35 -9 -99 -13 -141 l-7 -78
28 0 c18 0 40 12 65 38 65 65 65 165 0 227 -39 38 -121 46 -164 17z m177 -73
c33 -62 8 -143 -54 -175 l-31 -16 6 59 c3 32 9 89 12 126 6 66 7 68 28 54 11
-7 29 -29 39 -48z"/>
<path d="M3850 6555 c0 -11 4 -27 10 -35 8 -12 10 -12 16 4 4 11 0 24 -10 34
-15 15 -16 15 -16 -3z"/>
<path d="M4921 6541 c-10 -7 -10 -10 -1 -16 6 -4 16 -3 22 3 13 13 -4 23 -21
13z"/>
<path d="M4985 6520 c-8 -12 20 -24 35 -15 5 3 10 10 10 16 0 12 -37 12 -45
-1z"/>
<path d="M5050 6503 c-23 -16 -44 -23 -60 -20 -14 3 -41 8 -60 12 -35 7 -35 6
-62 -52 -15 -32 -41 -92 -58 -133 -18 -41 -48 -111 -67 -154 -47 -105 -129
-349 -154 -456 -38 -164 -42 -204 -25 -245 9 -21 16 -46 16 -56 0 -63 66 40
84 131 11 55 76 249 103 310 57 126 138 208 327 331 39 26 70 53 69 60 -1 15
-74 293 -76 295 -1 0 -18 -10 -37 -23z"/>
<path d="M4207 6493 c-10 -9 -9 -23 2 -23 5 0 11 7 15 15 5 15 -5 20 -17 8z"/>
<path d="M4385 6490 c3 -5 10 -10 16 -10 5 0 9 5 9 10 0 6 -7 10 -16 10 -8 0
-12 -4 -9 -10z"/>
<path d="M3880 6478 c0 -15 23 -81 31 -88 3 -3 9 -14 13 -25 l8 -20 8 20 c12
28 12 65 0 65 -5 0 -10 8 -10 18 0 21 -18 42 -37 42 -7 0 -13 -5 -13 -12z"/>
<path d="M4170 6435 c-7 -8 -8 -15 -2 -15 5 0 15 7 22 15 7 8 8 15 2 15 -5 0
-15 -7 -22 -15z"/>
<path d="M4310 6375 c0 -8 5 -15 10 -15 6 0 10 7 10 15 0 8 -4 15 -10 15 -5 0
-10 -7 -10 -15z"/>
<path d="M4702 6238 c-11 -29 -34 -90 -52 -135 -18 -45 -30 -88 -27 -95 3 -7
10 0 16 17 37 94 87 202 98 213 17 18 17 52 -1 52 -7 0 -23 -24 -34 -52z"/>
<path d="M5098 6149 c-45 -26 -68 -46 -68 -58 0 -10 -7 -24 -15 -31 -8 -7 -15
-17 -15 -22 0 -6 20 9 44 33 25 23 64 52 88 63 24 12 44 29 46 39 5 24 -4 22
-80 -24z"/>
<path d="M12580 6152 c0 -5 45 -15 100 -22 115 -15 135 -28 135 -92 0 -31 -6
-45 -28 -64 -33 -28 -46 -29 -151 -9 -73 14 -98 14 -83 -1 9 -9 147 -34 188
-34 67 0 115 79 91 149 -8 22 -7 31 1 34 24 9 -2 17 -101 32 -115 17 -152 19
-152 7z"/>
<path d="M5090 6069 c-19 -16 -30 -29 -25 -29 14 0 71 47 65 53 -3 3 -21 -8
-40 -24z"/>
<path d="M3994 6045 c-4 -8 3 -39 14 -68 l20 -52 -2 64 c-2 63 -19 92 -32 56z"/>
<path d="M4938 6034 c-53 -28 -153 -176 -153 -229 -1 -25 -21 -100 -42 -155
-4 -8 -7 -28 -9 -45 -1 -16 -7 -31 -13 -33 -14 -5 -14 -29 0 -34 13 -4 -3 -41
-26 -65 -16 -16 -75 -156 -75 -178 0 -32 17 -4 55 87 21 51 47 99 57 106 21
15 24 48 6 55 -10 3 -10 9 0 26 6 11 12 35 12 52 0 26 3 31 20 26 11 -3 17 -1
14 5 -9 14 4 54 24 74 16 16 20 38 23 119 1 16 11 44 23 61 34 51 106 125 115
119 5 -3 11 2 15 10 7 18 -10 18 -46 -1z"/>
<path d="M4375 5979 c-5 -14 -1 -27 9 -37 21 -21 29 -10 21 27 -8 36 -21 40
-30 10z"/>
<path d="M4911 5949 c-24 -27 -41 -52 -38 -55 6 -6 87 85 87 97 0 14 -3 12
-49 -42z"/>
<path d="M4600 5950 c-12 -43 -9 -57 9 -46 15 10 24 67 13 78 -7 7 -14 -3 -22
-32z"/>
<path d="M4062 5949 c1 -12 9 -24 16 -27 9 -3 13 3 10 19 -1 12 -9 24 -16 27
-9 3 -13 -3 -10 -19z"/>
<path d="M4121 5954 c0 -11 3 -14 6 -6 3 7 2 16 -1 19 -3 4 -6 -2 -5 -13z"/>
<path d="M4945 5920 c-3 -6 1 -7 9 -4 18 7 21 14 7 14 -6 0 -13 -4 -16 -10z"/>
<path d="M4908 5873 c-14 -16 -28 -37 -32 -47 -6 -19 -6 -19 11 -4 18 16 58
78 50 78 -2 0 -15 -12 -29 -27z"/>
<path d="M4071 5864 c0 -11 3 -14 6 -6 3 7 2 16 -1 19 -3 4 -6 -2 -5 -13z"/>
<path d="M4850 5869 c0 -5 5 -7 10 -4 6 3 10 8 10 11 0 2 -4 4 -10 4 -5 0 -10
-5 -10 -11z"/>
<path d="M4406 5813 c4 -16 11 -32 15 -37 5 -6 9 -27 9 -49 0 -23 4 -36 10
-32 13 8 13 74 -1 114 -14 40 -42 43 -33 4z"/>
<path d="M12505 5739 c-8 -11 -1 -14 118 -39 l108 -24 -6 -27 c-3 -15 -2 -30
4 -33 5 -3 12 8 16 25 5 21 11 29 22 25 8 -3 32 -9 54 -12 48 -8 54 11 7 21
-69 14 -70 15 -64 46 7 35 -11 39 -20 4 -7 -30 -4 -30 -132 -1 -56 13 -105 20
-107 15z"/>
<path d="M4824 5719 c-3 -6 -1 -16 5 -22 8 -8 11 -5 11 11 0 24 -5 28 -16 11z"/>
<path d="M4459 5677 c-16 -35 11 -161 36 -166 15 -2 17 1 10 20 -4 13 -7 41
-6 62 1 27 -3 37 -14 37 -17 0 -21 25 -5 35 13 8 13 35 0 35 -6 0 -15 -10 -21
-23z"/>
<path d="M4807 5683 c-4 -3 -7 -11 -7 -17 0 -6 5 -5 12 2 6 6 9 14 7 17 -3 3
-9 2 -12 -2z"/>
<path d="M4174 5644 c3 -9 6 -19 6 -22 0 -9 20 21 20 31 0 4 -7 7 -16 7 -11 0
-14 -5 -10 -16z"/>
<path d="M4210 5580 c0 -5 5 -10 10 -10 6 0 10 5 10 10 0 6 -4 10 -10 10 -5 0
-10 -4 -10 -10z"/>
<path d="M12512 5489 c-38 -8 -89 -52 -104 -89 -13 -34 -12 -103 2 -129 10
-20 9 -21 -14 -15 -15 3 -26 2 -26 -4 0 -6 54 -28 120 -50 92 -31 120 -37 120
-26 0 8 -5 14 -12 14 -7 0 5 15 25 34 42 38 57 71 57 127 0 95 -76 158 -168
138z m96 -35 c77 -54 64 -182 -22 -227 -32 -17 -43 -18 -76 -8 -21 6 -51 26
-65 43 -24 28 -27 38 -23 87 4 47 10 59 41 88 30 27 45 33 80 33 23 0 53 -7
65 -16z"/>
<path d="M4828 5435 c-51 -65 -67 -117 -75 -245 -7 -111 12 -194 79 -345 22
-49 48 -116 57 -147 19 -65 31 -83 31 -46 0 25 -41 162 -60 203 -39 82 -54
155 -55 265 -2 120 6 195 22 211 6 6 8 -24 5 -78 -4 -78 -2 -86 10 -69 14 17
15 14 21 -43 8 -69 45 -201 57 -201 10 0 60 -116 60 -139 0 -20 27 -48 36 -38
6 5 -27 111 -47 152 -11 24 -35 106 -54 190 -9 37 -15 121 -15 223 -1 188 -4
193 -72 107z"/>
<path d="M4466 5335 c-5 -27 -15 -78 -22 -113 -8 -35 -11 -69 -6 -77 9 -18 46
178 40 215 -3 18 -6 11 -12 -25z"/>
<path d="M4542 5345 c2 -22 8 -39 13 -37 12 4 7 53 -7 67 -6 7 -8 -4 -6 -30z"/>
<path d="M4522 5277 c-8 -9 -12 -26 -10 -39 l3 -23 13 23 c7 13 12 30 10 39
-3 15 -4 15 -16 0z"/>
<path d="M4567 5234 c-3 -4 0 -16 8 -28 8 -11 15 -28 15 -38 0 -10 5 -18 10
-18 6 0 10 6 10 13 -1 20 -35 78 -43 71z"/>
<path d="M4545 5130 c-3 -5 -15 -10 -25 -10 -26 0 -41 -30 -28 -55 21 -39 163
-215 166 -206 1 4 -13 55 -33 112 -19 57 -35 119 -35 137 0 25 -4 32 -19 32
-11 0 -23 -4 -26 -10z"/>
<path d="M4831 5113 c-1 -17 -4 -40 -7 -50 -5 -15 -4 -15 5 -3 9 12 11 9 11
-14 0 -33 14 -81 41 -141 9 -22 28 -68 41 -102 21 -59 39 -76 53 -53 3 5 -5
25 -19 43 -15 19 -26 41 -26 51 0 15 -3 22 -27 71 -9 19 -23 62 -57 180 -12
44 -14 46 -15 18z"/>
<path d="M4617 5114 c-4 -4 -7 -17 -7 -28 1 -19 1 -20 11 -3 11 19 8 43 -4 31z"/>
<path d="M12316 5027 c-21 -12 -47 -38 -57 -57 -20 -37 -25 -115 -9 -140 12
-18 11 -20 13 57 2 54 6 66 32 93 41 43 91 56 137 37 50 -21 72 -65 65 -131
-4 -44 -10 -55 -47 -88 -43 -38 -49 -59 -12 -39 32 17 71 69 82 110 24 88 -43
181 -130 181 -19 0 -53 -10 -74 -23z"/>
<path d="M4655 4990 c3 -5 8 -10 11 -10 2 0 4 5 4 10 0 6 -5 10 -11 10 -5 0
-7 -4 -4 -10z"/>
<path d="M4691 4894 c0 -11 3 -14 6 -6 3 7 2 16 -1 19 -3 4 -6 -2 -5 -13z"/>
<path d="M4726 4802 c-3 -5 2 -19 11 -31 11 -17 18 -20 23 -10 5 7 3 20 -3 31
-13 20 -23 23 -31 10z"/>
<path d="M5002 4708 c5 -32 28 -35 28 -4 0 17 -5 26 -16 26 -10 0 -14 -7 -12
-22z"/>
<path d="M5000 4658 c0 -19 18 -43 25 -36 9 9 -4 48 -16 48 -5 0 -9 -6 -9 -12z"/>
<path d="M12131 4663 c1 -14 222 -114 231 -105 5 5 -38 31 -100 60 -107 51
-133 60 -131 45z"/>
<path d="M12407 4536 c-9 -22 18 -40 33 -22 6 9 9 20 5 26 -9 15 -32 12 -38
-4z"/>
<path d="M5005 4530 c-8 -13 4 -32 16 -25 12 8 12 35 0 35 -6 0 -13 -4 -16
-10z"/>
<path d="M12050 4439 c-115 -46 -135 -209 -35 -275 36 -24 106 -21 149 5 40
25 76 92 76 142 0 97 -99 164 -190 128z m108 -29 c70 -43 79 -131 19 -196 -78
-85 -207 -35 -207 79 0 44 36 97 80 119 45 23 67 23 108 -2z"/>
<path d="M12258 4224 c-4 -5 -3 -25 1 -44 6 -27 10 -31 16 -18 8 19 -8 77 -17
62z"/>
<path d="M11800 4071 c0 -5 36 -32 81 -62 45 -29 85 -63 90 -76 14 -36 -13
-91 -53 -107 -40 -17 -60 -10 -145 49 -63 44 -83 53 -83 37 0 -15 152 -114
184 -119 47 -7 97 31 115 87 8 25 18 47 23 48 20 8 2 24 -95 86 -105 67 -117
73 -117 57z"/>
<path d="M11146 3193 c-2 -2 4 -36 14 -76 10 -40 26 -107 35 -149 9 -43 21
-75 26 -72 15 9 10 50 -16 156 -14 55 -24 103 -21 105 3 3 57 -5 121 -17 108
-21 118 -22 133 -6 15 15 14 16 -13 16 -17 1 -85 11 -153 23 -67 13 -124 22
-126 20z"/>
<path d="M10805 2867 c-59 -29 -108 -78 -129 -129 -19 -44 -19 -48 -5 -48 5 0
16 15 24 34 35 83 110 136 192 136 47 -1 83 -17 83 -38 0 -11 -112 -106 -212
-181 -32 -24 -58 -48 -58 -53 0 -5 16 -16 36 -24 111 -47 284 86 284 218 0 93
-109 136 -215 85z m181 -143 c-9 -36 -75 -105 -121 -125 -42 -20 -110 -25
-119 -10 -3 5 46 50 109 100 63 50 118 97 122 104 10 16 17 -37 9 -69z"/>
<path d="M10262 2584 c-29 -14 -65 -41 -81 -60 -32 -40 -54 -103 -45 -130 17
-52 101 -204 113 -204 8 0 11 7 8 20 -5 18 0 20 46 20 162 1 296 174 210 270
-72 81 -244 42 -313 -69 -28 -46 -40 -51 -40 -19 0 77 89 162 182 174 62 8 72
24 16 24 -27 0 -64 -10 -96 -26z m225 -98 c56 -66 12 -166 -97 -215 -159 -72
-259 72 -133 191 44 42 91 59 152 55 44 -3 59 -9 78 -31z"/>
<path d="M9797 2259 c-60 -14 -113 -45 -146 -86 -30 -36 -32 -37 -37 -15 -6
20 -34 32 -34 14 0 -8 61 -190 75 -224 9 -23 34 -12 28 13 -5 17 -3 18 21 9
99 -37 255 43 286 146 11 35 10 46 -5 77 -26 56 -110 85 -188 66z m141 -52
c103 -104 -104 -277 -244 -204 -85 44 -58 163 48 216 63 31 158 26 196 -12z"/>
<path d="M9333 2088 c2 -7 15 -54 28 -105 l23 -92 -24 -26 c-46 -49 -146 -58
-183 -17 -9 10 -25 56 -35 102 -12 58 -23 86 -34 88 -23 4 17 -175 46 -206 42
-43 134 -42 201 3 20 14 41 23 46 20 24 -15 25 12 3 87 -14 46 -29 100 -35
121 -6 23 -16 37 -25 37 -9 0 -14 -6 -11 -12z"/>
<path d="M8617 1965 c-21 -8 -51 -24 -67 -35 l-30 -21 0 25 c0 18 -5 26 -16
26 -15 0 -16 -11 -10 -92 3 -50 6 -108 6 -130 0 -27 4 -38 15 -38 8 0 15 8 15
19 0 18 2 18 43 -3 80 -40 205 -23 273 36 81 71 55 175 -53 214 -49 17 -127
17 -176 -1z m169 -24 c84 -38 99 -108 37 -171 -95 -95 -287 -62 -294 50 -3 42
12 72 48 98 64 44 143 53 209 23z"/>
<path d="M8114 1821 c-39 -24 -62 -74 -44 -96 40 -48 160 40 136 100 -8 21
-55 19 -92 -4z"/>
</g>
</svg>
